<svg id="visual" viewBox="0 0 960 540" width="960" height="540" xmlns="http://www.w3.org/2000/svg" xmlns:xlink="http://www.w3.org/1999/xlink" version="1.1"><rect x="0" y="0" width="960" height="540" fill="#001220"></rect><defs><linearGradient id="grad1_0" x1="43.8%" y1="0%" x2="100%" y2="100%"><stop offset="14.444444444444446%" stop-color="#001220" stop-opacity="1"></stop><stop offset="85.55555555555554%" stop-color="#001220" stop-opacity="1"></stop></linearGradient></defs><defs><linearGradient id="grad2_0" x1="0%" y1="0%" x2="56.3%" y2="100%"><stop offset="14.444444444444446%" stop-color="#001220" stop-opacity="1"></stop><stop offset="85.55555555555554%" stop-color="#001220" stop-opacity="1"></stop></linearGradient></defs><g transform="translate(960, 0)"><path d="M0 243C-31.2 239.3 -62.4 235.5 -93 224.5C-123.5 213.5 -153.4 195.1 -169.7 169.7C-186 144.3 -188.7 111.7 -198.6 82.3C-208.6 52.8 -225.8 26.4 -243 0L0 0Z" fill="#FBAE3C"></path></g><g transform="translate(0, 540)"><path d="M0 -243C32.3 -240.6 64.5 -238.2 93 -224.5C121.4 -210.8 146 -185.9 159.1 -159.1C172.2 -132.3 173.6 -103.7 185.7 -76.9C197.8 -50.1 220.4 -25 243 0L0 0Z" fill="#FBAE3C"></path></g></svg>