<svg width="2743" height="500" viewBox="0 0 2743 500" fill="none" xmlns="http://www.w3.org/2000/svg">
<path d="M239.297 11.0009C191.968 11.0015 145.703 25.0366 106.351 51.3313C66.9985 77.6259 36.3273 114.999 18.2156 158.725C0.103773 202.451 -4.63516 250.566 4.59801 296.985C13.8312 343.404 36.6218 386.043 70.0878 419.51C115.016 464.145 175.805 489.15 239.136 489.047C302.467 488.943 363.174 463.739 407.955 418.958C452.737 374.176 477.941 313.468 478.044 250.138C478.148 186.807 453.142 126.018 408.507 81.0899C386.337 58.7994 359.967 41.1273 330.922 29.0965C301.877 17.0658 270.735 10.9152 239.297 11.0009ZM229.397 43.2429L128.646 218.502L74.6608 124.491C92.974 100.49 116.312 80.7822 143.042 66.7476C169.771 52.713 199.245 44.6909 229.4 43.2429H229.397ZM285.834 170.278L331.746 249.691L285.546 330.482H192.946L147.087 250.623L193.276 170.278H285.834ZM55.2608 154.965L156.049 330.482H48.1388C36.3902 302.492 30.9383 272.262 32.169 241.931C33.3997 211.6 41.283 181.911 55.2608 154.965ZM65.0518 362.48H267.252L213.758 456.022C183.64 452.251 154.715 441.92 129.022 425.759C103.329 409.597 81.4924 387.997 65.0518 362.482V362.48ZM249.87 457.329L350.281 281.745L404.449 375.437C386.215 399.535 362.93 419.353 336.227 433.5C309.524 447.647 280.049 455.781 249.87 457.331V457.329ZM423.738 344.865L322.8 170.278H430.521C442.177 198.116 447.61 228.165 446.438 258.322C445.267 288.479 437.519 318.015 423.738 344.865ZM211.676 138.278L265.501 44.6509C295.527 48.5116 324.346 58.8925 349.938 75.066C375.529 91.2395 397.274 112.814 413.648 138.278H211.676Z" fill="white"/>
<path d="M559 0H533V500H559V0Z" fill="white"/>
<path d="M621.227 250.418L649.352 247.684C651.044 257.124 654.462 264.057 659.605 268.484C664.814 272.911 671.812 275.125 680.602 275.125C689.911 275.125 696.91 273.172 701.598 269.266C706.35 265.294 708.727 260.672 708.727 255.398C708.727 252.013 707.717 249.148 705.699 246.805C703.746 244.396 700.296 242.312 695.348 240.555C691.962 239.383 684.247 237.299 672.203 234.305C656.708 230.464 645.836 225.743 639.586 220.145C630.797 212.267 626.402 202.664 626.402 191.336C626.402 184.044 628.453 177.241 632.555 170.926C636.721 164.546 642.678 159.695 650.426 156.375C658.238 153.055 667.646 151.395 678.648 151.395C696.617 151.395 710.126 155.333 719.176 163.211C728.29 171.089 733.076 181.603 733.531 194.754L704.625 196.023C703.388 188.667 700.719 183.393 696.617 180.203C692.581 176.948 686.493 175.32 678.355 175.32C669.957 175.32 663.382 177.046 658.629 180.496C655.569 182.71 654.039 185.672 654.039 189.383C654.039 192.768 655.471 195.665 658.336 198.074C661.982 201.134 670.836 204.324 684.898 207.645C698.961 210.965 709.345 214.415 716.051 217.996C722.822 221.512 728.095 226.362 731.871 232.547C735.712 238.667 737.633 246.251 737.633 255.301C737.633 263.504 735.354 271.186 730.797 278.348C726.24 285.509 719.794 290.848 711.461 294.363C703.128 297.814 692.743 299.539 680.309 299.539C662.21 299.539 648.31 295.372 638.609 287.039C628.909 278.641 623.115 266.434 621.227 250.418ZM790.27 297L748.473 193.289H777.281L796.812 246.219L802.477 263.895C803.974 259.402 804.918 256.44 805.309 255.008C806.22 252.078 807.197 249.148 808.238 246.219L827.965 193.289H856.188L814.977 297H790.27ZM933.141 263.992L960.484 268.582C956.969 278.608 951.402 286.258 943.785 291.531C936.233 296.74 926.76 299.344 915.367 299.344C897.333 299.344 883.987 293.452 875.328 281.668C868.492 272.228 865.074 260.314 865.074 245.926C865.074 228.738 869.566 215.294 878.551 205.594C887.535 195.828 898.896 190.945 912.633 190.945C928.062 190.945 940.237 196.056 949.156 206.277C958.076 216.434 962.34 232.026 961.949 253.055H893.199C893.395 261.193 895.608 267.54 899.84 272.098C904.072 276.59 909.345 278.836 915.66 278.836C919.957 278.836 923.57 277.664 926.5 275.32C929.43 272.977 931.643 269.201 933.141 263.992ZM934.703 236.258C934.508 228.315 932.457 222.293 928.551 218.191C924.645 214.025 919.892 211.941 914.293 211.941C908.303 211.941 903.355 214.122 899.449 218.484C895.543 222.846 893.622 228.771 893.688 236.258H934.703ZM1031.97 193.289V215.164H1013.22V256.961C1013.22 265.424 1013.38 270.372 1013.71 271.805C1014.1 273.172 1014.91 274.311 1016.15 275.223C1017.45 276.134 1019.01 276.59 1020.84 276.59C1023.38 276.59 1027.05 275.711 1031.87 273.953L1034.21 295.242C1027.83 297.977 1020.61 299.344 1012.54 299.344C1007.59 299.344 1003.13 298.53 999.156 296.902C995.185 295.21 992.255 293.061 990.367 290.457C988.544 287.788 987.275 284.207 986.559 279.715C985.973 276.525 985.68 270.079 985.68 260.379V215.164H973.082V193.289H985.68V172.684L1013.22 156.668V193.289H1031.97ZM1039.98 297V275.613L1078.84 230.984C1085.22 223.693 1089.94 218.517 1093 215.457C1089.81 215.652 1085.61 215.783 1080.41 215.848L1043.79 216.043V193.289H1129.53V212.723L1089.88 258.426L1075.91 273.562C1083.53 273.107 1088.25 272.879 1090.07 272.879H1132.55V297H1039.98ZM1206.87 297V153.836H1253.26C1270.84 153.836 1282.29 154.552 1287.63 155.984C1295.84 158.133 1302.7 162.82 1308.24 170.047C1313.77 177.208 1316.54 186.486 1316.54 197.879C1316.54 206.668 1314.94 214.057 1311.75 220.047C1308.56 226.036 1304.49 230.757 1299.55 234.207C1294.66 237.592 1289.68 239.839 1284.61 240.945C1277.7 242.312 1267.71 242.996 1254.62 242.996H1235.78V297H1206.87ZM1235.78 178.055V218.68H1251.6C1262.99 218.68 1270.61 217.931 1274.45 216.434C1278.29 214.936 1281.29 212.592 1283.43 209.402C1285.65 206.212 1286.75 202.501 1286.75 198.27C1286.75 193.061 1285.22 188.764 1282.16 185.379C1279.1 181.993 1275.23 179.878 1270.54 179.031C1267.09 178.38 1260.16 178.055 1249.74 178.055H1235.78ZM1367.42 153.836V206.473C1376.27 196.121 1386.85 190.945 1399.16 190.945C1405.47 190.945 1411.17 192.117 1416.25 194.461C1421.32 196.805 1425.13 199.799 1427.67 203.445C1430.28 207.091 1432.03 211.128 1432.95 215.555C1433.92 219.982 1434.41 226.85 1434.41 236.16V297H1406.97V242.215C1406.97 231.342 1406.45 224.441 1405.41 221.512C1404.36 218.582 1402.51 216.271 1399.84 214.578C1397.24 212.82 1393.95 211.941 1389.98 211.941C1385.42 211.941 1381.35 213.048 1377.77 215.262C1374.19 217.475 1371.55 220.828 1369.86 225.32C1368.23 229.747 1367.42 236.323 1367.42 245.047V297H1339.98V153.836H1367.42ZM1455.99 243.68C1455.99 234.565 1458.24 225.743 1462.73 217.215C1467.22 208.686 1473.57 202.176 1481.77 197.684C1490.04 193.191 1499.25 190.945 1509.41 190.945C1525.1 190.945 1537.96 196.056 1547.98 206.277C1558.01 216.434 1563.02 229.292 1563.02 244.852C1563.02 260.542 1557.95 273.562 1547.79 283.914C1537.7 294.201 1524.97 299.344 1509.61 299.344C1500.1 299.344 1491.02 297.195 1482.36 292.898C1473.77 288.602 1467.22 282.319 1462.73 274.051C1458.24 265.717 1455.99 255.594 1455.99 243.68ZM1484.12 245.145C1484.12 255.431 1486.56 263.309 1491.44 268.777C1496.32 274.246 1502.35 276.98 1509.51 276.98C1516.67 276.98 1522.66 274.246 1527.48 268.777C1532.36 263.309 1534.8 255.366 1534.8 244.949C1534.8 234.793 1532.36 226.98 1527.48 221.512C1522.66 216.043 1516.67 213.309 1509.51 213.309C1502.35 213.309 1496.32 216.043 1491.44 221.512C1486.56 226.98 1484.12 234.858 1484.12 245.145ZM1632.16 193.289V215.164H1613.41V256.961C1613.41 265.424 1613.58 270.372 1613.9 271.805C1614.29 273.172 1615.11 274.311 1616.34 275.223C1617.65 276.134 1619.21 276.59 1621.03 276.59C1623.57 276.59 1627.25 275.711 1632.07 273.953L1634.41 295.242C1628.03 297.977 1620.8 299.344 1612.73 299.344C1607.78 299.344 1603.32 298.53 1599.35 296.902C1595.38 295.21 1592.45 293.061 1590.56 290.457C1588.74 287.788 1587.47 284.207 1586.75 279.715C1586.17 276.525 1585.88 270.079 1585.88 260.379V215.164H1573.28V193.289H1585.88V172.684L1613.41 156.668V193.289H1632.16ZM1644.86 243.68C1644.86 234.565 1647.11 225.743 1651.6 217.215C1656.09 208.686 1662.44 202.176 1670.64 197.684C1678.91 193.191 1688.12 190.945 1698.28 190.945C1713.97 190.945 1726.83 196.056 1736.85 206.277C1746.88 216.434 1751.89 229.292 1751.89 244.852C1751.89 260.542 1746.81 273.562 1736.66 283.914C1726.57 294.201 1713.84 299.344 1698.47 299.344C1688.97 299.344 1679.89 297.195 1671.23 292.898C1662.63 288.602 1656.09 282.319 1651.6 274.051C1647.11 265.717 1644.86 255.594 1644.86 243.68ZM1672.98 245.145C1672.98 255.431 1675.43 263.309 1680.31 268.777C1685.19 274.246 1691.21 276.98 1698.38 276.98C1705.54 276.98 1711.53 274.246 1716.34 268.777C1721.23 263.309 1723.67 255.366 1723.67 244.949C1723.67 234.793 1721.23 226.98 1716.34 221.512C1711.53 216.043 1705.54 213.309 1698.38 213.309C1691.21 213.309 1685.19 216.043 1680.31 221.512C1675.43 226.98 1672.98 234.858 1672.98 245.145ZM1770.93 303.836L1802.28 307.645C1802.8 311.29 1804.01 313.797 1805.89 315.164C1808.5 317.117 1812.6 318.094 1818.2 318.094C1825.36 318.094 1830.73 317.02 1834.31 314.871C1836.72 313.439 1838.54 311.128 1839.78 307.938C1840.63 305.659 1841.05 301.46 1841.05 295.34V280.203C1832.85 291.401 1822.5 297 1810 297C1796.06 297 1785.03 291.108 1776.89 279.324C1770.51 270.014 1767.32 258.426 1767.32 244.559C1767.32 227.176 1771.49 213.895 1779.82 204.715C1788.22 195.535 1798.64 190.945 1811.07 190.945C1823.9 190.945 1834.48 196.577 1842.81 207.84V193.289H1868.49V286.355C1868.49 298.595 1867.48 307.742 1865.46 313.797C1863.45 319.852 1860.61 324.604 1856.97 328.055C1853.32 331.505 1848.44 334.207 1842.32 336.16C1836.27 338.113 1828.58 339.09 1819.27 339.09C1801.7 339.09 1789.23 336.062 1781.87 330.008C1774.51 324.018 1770.84 316.401 1770.84 307.156C1770.84 306.245 1770.87 305.138 1770.93 303.836ZM1795.45 242.996C1795.45 253.999 1797.56 262.072 1801.79 267.215C1806.09 272.293 1811.36 274.832 1817.61 274.832C1824.32 274.832 1829.98 272.228 1834.61 267.02C1839.23 261.746 1841.54 253.966 1841.54 243.68C1841.54 232.938 1839.33 224.962 1834.9 219.754C1830.47 214.546 1824.87 211.941 1818.1 211.941C1811.53 211.941 1806.09 214.513 1801.79 219.656C1797.56 224.734 1795.45 232.514 1795.45 242.996ZM1922.01 297H1894.57V193.289H1920.05V208.035C1924.42 201.069 1928.32 196.479 1931.77 194.266C1935.29 192.052 1939.26 190.945 1943.69 190.945C1949.94 190.945 1955.96 192.671 1961.75 196.121L1953.26 220.047C1948.64 217.052 1944.34 215.555 1940.37 215.555C1936.53 215.555 1933.27 216.629 1930.6 218.777C1927.93 220.861 1925.82 224.669 1924.25 230.203C1922.76 235.737 1922.01 247.326 1922.01 264.969V297ZM1994.18 224.93L1969.27 220.438C1972.07 210.411 1976.89 202.99 1983.73 198.172C1990.56 193.354 2000.72 190.945 2014.2 190.945C2026.43 190.945 2035.55 192.41 2041.54 195.34C2047.53 198.204 2051.73 201.883 2054.14 206.375C2056.61 210.802 2057.85 218.973 2057.85 230.887L2057.55 262.918C2057.55 272.033 2057.98 278.771 2058.82 283.133C2059.74 287.43 2061.4 292.052 2063.8 297H2036.66C2035.94 295.177 2035.06 292.475 2034.02 288.895C2033.56 287.267 2033.24 286.193 2033.04 285.672C2028.36 290.229 2023.34 293.647 2018 295.926C2012.67 298.204 2006.97 299.344 2000.91 299.344C1990.24 299.344 1981.81 296.447 1975.62 290.652C1969.5 284.858 1966.44 277.534 1966.44 268.68C1966.44 262.82 1967.84 257.612 1970.64 253.055C1973.44 248.432 1977.35 244.917 1982.36 242.508C1987.44 240.034 1994.73 237.885 2004.23 236.062C2017.06 233.654 2025.95 231.408 2030.89 229.324V226.59C2030.89 221.316 2029.59 217.573 2026.99 215.359C2024.38 213.081 2019.47 211.941 2012.24 211.941C2007.36 211.941 2003.55 212.918 2000.82 214.871C1998.08 216.759 1995.87 220.112 1994.18 224.93ZM2030.89 247.195C2027.38 248.367 2021.81 249.767 2014.2 251.395C2006.58 253.022 2001.6 254.617 1999.25 256.18C1995.67 258.719 1993.88 261.941 1993.88 265.848C1993.88 269.689 1995.32 273.009 1998.18 275.809C2001.04 278.608 2004.69 280.008 2009.12 280.008C2014.07 280.008 2018.79 278.38 2023.28 275.125C2026.6 272.651 2028.78 269.624 2029.82 266.043C2030.54 263.699 2030.89 259.24 2030.89 252.664V247.195ZM2084.21 193.289H2109.8V208.523C2113.12 203.315 2117.61 199.083 2123.28 195.828C2128.94 192.573 2135.22 190.945 2142.12 190.945C2154.17 190.945 2164.39 195.665 2172.79 205.105C2181.19 214.546 2185.39 227.697 2185.39 244.559C2185.39 261.876 2181.15 275.353 2172.69 284.988C2164.23 294.559 2153.97 299.344 2141.93 299.344C2136.2 299.344 2130.99 298.204 2126.3 295.926C2121.68 293.647 2116.8 289.741 2111.66 284.207V336.453H2084.21V193.289ZM2111.36 243.387C2111.36 255.04 2113.67 263.667 2118.3 269.266C2122.92 274.799 2128.55 277.566 2135.19 277.566C2141.57 277.566 2146.88 275.027 2151.11 269.949C2155.34 264.806 2157.46 256.408 2157.46 244.754C2157.46 233.882 2155.28 225.809 2150.91 220.535C2146.55 215.262 2141.15 212.625 2134.7 212.625C2128 212.625 2122.43 215.229 2118 220.438C2113.58 225.581 2111.36 233.23 2111.36 243.387ZM2234.61 153.836V206.473C2243.46 196.121 2254.04 190.945 2266.34 190.945C2272.66 190.945 2278.36 192.117 2283.43 194.461C2288.51 196.805 2292.32 199.799 2294.86 203.445C2297.46 207.091 2299.22 211.128 2300.13 215.555C2301.11 219.982 2301.6 226.85 2301.6 236.16V297H2274.16V242.215C2274.16 231.342 2273.64 224.441 2272.59 221.512C2271.55 218.582 2269.7 216.271 2267.03 214.578C2264.42 212.82 2261.14 211.941 2257.16 211.941C2252.61 211.941 2248.54 213.048 2244.96 215.262C2241.38 217.475 2238.74 220.828 2237.05 225.32C2235.42 229.747 2234.61 236.323 2234.61 245.047V297H2207.16V153.836H2234.61ZM2316.54 193.289H2345.74L2370.54 266.922L2394.76 193.289H2423.18L2386.56 293.094L2380.02 311.16C2377.61 317.215 2375.3 321.837 2373.08 325.027C2370.93 328.217 2368.43 330.789 2365.56 332.742C2362.76 334.76 2359.28 336.323 2355.11 337.43C2351.01 338.536 2346.36 339.09 2341.15 339.09C2335.88 339.09 2330.7 338.536 2325.62 337.43L2323.18 315.945C2327.48 316.792 2331.35 317.215 2334.8 317.215C2341.18 317.215 2345.9 315.327 2348.96 311.551C2352.02 307.84 2354.36 303.087 2355.99 297.293L2316.54 193.289Z" fill="white"/>
</svg>
