<svg id="wave" style="transform:rotate(180deg); transition: 0.3s" viewBox="0 0 1440 490" version="1.1" xmlns="http://www.w3.org/2000/svg"><defs><linearGradient id="sw-gradient-0" x1="0" x2="0" y1="1" y2="0"><stop stop-color="rgba(243, 106, 62, 1)" offset="0%"></stop><stop stop-color="rgba(255, 179, 11, 1)" offset="100%"></stop></linearGradient></defs><path style="transform:translate(0, 0px); opacity:1" fill="url(#sw-gradient-0)" d="M0,343L34.3,351.2C68.6,359,137,376,206,375.7C274.3,376,343,359,411,351.2C480,343,549,343,617,285.8C685.7,229,754,114,823,106.2C891.4,98,960,196,1029,220.5C1097.1,245,1166,196,1234,179.7C1302.9,163,1371,180,1440,212.3C1508.6,245,1577,294,1646,310.3C1714.3,327,1783,310,1851,269.5C1920,229,1989,163,2057,147C2125.7,131,2194,163,2263,204.2C2331.4,245,2400,294,2469,334.8C2537.1,376,2606,408,2674,416.5C2742.9,425,2811,408,2880,367.5C2948.6,327,3017,261,3086,269.5C3154.3,278,3223,359,3291,359.3C3360,359,3429,278,3497,253.2C3565.7,229,3634,261,3703,245C3771.4,229,3840,163,3909,122.5C3977.1,82,4046,65,4114,49C4182.9,33,4251,16,4320,65.3C4388.6,114,4457,229,4526,228.7C4594.3,229,4663,114,4731,130.7C4800,147,4869,294,4903,367.5L4937.1,441L4937.1,490L4902.9,490C4868.6,490,4800,490,4731,490C4662.9,490,4594,490,4526,490C4457.1,490,4389,490,4320,490C4251.4,490,4183,490,4114,490C4045.7,490,3977,490,3909,490C3840,490,3771,490,3703,490C3634.3,490,3566,490,3497,490C3428.6,490,3360,490,3291,490C3222.9,490,3154,490,3086,490C3017.1,490,2949,490,2880,490C2811.4,490,2743,490,2674,490C2605.7,490,2537,490,2469,490C2400,490,2331,490,2263,490C2194.3,490,2126,490,2057,490C1988.6,490,1920,490,1851,490C1782.9,490,1714,490,1646,490C1577.1,490,1509,490,1440,490C1371.4,490,1303,490,1234,490C1165.7,490,1097,490,1029,490C960,490,891,490,823,490C754.3,490,686,490,617,490C548.6,490,480,490,411,490C342.9,490,274,490,206,490C137.1,490,69,490,34,490L0,490Z"></path><defs><linearGradient id="sw-gradient-1" x1="0" x2="0" y1="1" y2="0"><stop stop-color="rgba(243, 106, 62, 1)" offset="0%"></stop><stop stop-color="rgba(255, 179, 11, 1)" offset="100%"></stop></linearGradient></defs><path style="transform:translate(0, 50px); opacity:0.9" fill="url(#sw-gradient-1)" d="M0,147L34.3,163.3C68.6,180,137,212,206,204.2C274.3,196,343,147,411,138.8C480,131,549,163,617,163.3C685.7,163,754,131,823,98C891.4,65,960,33,1029,65.3C1097.1,98,1166,196,1234,261.3C1302.9,327,1371,359,1440,318.5C1508.6,278,1577,163,1646,147C1714.3,131,1783,212,1851,220.5C1920,229,1989,163,2057,163.3C2125.7,163,2194,229,2263,220.5C2331.4,212,2400,131,2469,138.8C2537.1,147,2606,245,2674,310.3C2742.9,376,2811,408,2880,375.7C2948.6,343,3017,245,3086,204.2C3154.3,163,3223,180,3291,163.3C3360,147,3429,98,3497,98C3565.7,98,3634,147,3703,163.3C3771.4,180,3840,163,3909,171.5C3977.1,180,4046,212,4114,253.2C4182.9,294,4251,343,4320,310.3C4388.6,278,4457,163,4526,98C4594.3,33,4663,16,4731,32.7C4800,49,4869,98,4903,122.5L4937.1,147L4937.1,490L4902.9,490C4868.6,490,4800,490,4731,490C4662.9,490,4594,490,4526,490C4457.1,490,4389,490,4320,490C4251.4,490,4183,490,4114,490C4045.7,490,3977,490,3909,490C3840,490,3771,490,3703,490C3634.3,490,3566,490,3497,490C3428.6,490,3360,490,3291,490C3222.9,490,3154,490,3086,490C3017.1,490,2949,490,2880,490C2811.4,490,2743,490,2674,490C2605.7,490,2537,490,2469,490C2400,490,2331,490,2263,490C2194.3,490,2126,490,2057,490C1988.6,490,1920,490,1851,490C1782.9,490,1714,490,1646,490C1577.1,490,1509,490,1440,490C1371.4,490,1303,490,1234,490C1165.7,490,1097,490,1029,490C960,490,891,490,823,490C754.3,490,686,490,617,490C548.6,490,480,490,411,490C342.9,490,274,490,206,490C137.1,490,69,490,34,490L0,490Z"></path><defs><linearGradient id="sw-gradient-2" x1="0" x2="0" y1="1" y2="0"><stop stop-color="rgba(243, 106, 62, 1)" offset="0%"></stop><stop stop-color="rgba(255, 179, 11, 1)" offset="100%"></stop></linearGradient></defs><path style="transform:translate(0, 100px); opacity:0.8" fill="url(#sw-gradient-2)" d="M0,98L34.3,122.5C68.6,147,137,196,206,245C274.3,294,343,343,411,351.2C480,359,549,327,617,318.5C685.7,310,754,327,823,310.3C891.4,294,960,245,1029,204.2C1097.1,163,1166,131,1234,171.5C1302.9,212,1371,327,1440,334.8C1508.6,343,1577,245,1646,204.2C1714.3,163,1783,180,1851,228.7C1920,278,1989,359,2057,343C2125.7,327,2194,212,2263,204.2C2331.4,196,2400,294,2469,343C2537.1,392,2606,392,2674,334.8C2742.9,278,2811,163,2880,114.3C2948.6,65,3017,82,3086,81.7C3154.3,82,3223,65,3291,98C3360,131,3429,212,3497,228.7C3565.7,245,3634,196,3703,212.3C3771.4,229,3840,310,3909,310.3C3977.1,310,4046,229,4114,179.7C4182.9,131,4251,114,4320,138.8C4388.6,163,4457,229,4526,228.7C4594.3,229,4663,163,4731,114.3C4800,65,4869,33,4903,16.3L4937.1,0L4937.1,490L4902.9,490C4868.6,490,4800,490,4731,490C4662.9,490,4594,490,4526,490C4457.1,490,4389,490,4320,490C4251.4,490,4183,490,4114,490C4045.7,490,3977,490,3909,490C3840,490,3771,490,3703,490C3634.3,490,3566,490,3497,490C3428.6,490,3360,490,3291,490C3222.9,490,3154,490,3086,490C3017.1,490,2949,490,2880,490C2811.4,490,2743,490,2674,490C2605.7,490,2537,490,2469,490C2400,490,2331,490,2263,490C2194.3,490,2126,490,2057,490C1988.6,490,1920,490,1851,490C1782.9,490,1714,490,1646,490C1577.1,490,1509,490,1440,490C1371.4,490,1303,490,1234,490C1165.7,490,1097,490,1029,490C960,490,891,490,823,490C754.3,490,686,490,617,490C548.6,490,480,490,411,490C342.9,490,274,490,206,490C137.1,490,69,490,34,490L0,490Z"></path><defs><linearGradient id="sw-gradient-3" x1="0" x2="0" y1="1" y2="0"><stop stop-color="rgba(243, 106, 62, 1)" offset="0%"></stop><stop stop-color="rgba(255, 179, 11, 1)" offset="100%"></stop></linearGradient></defs><path style="transform:translate(0, 150px); opacity:0.7" fill="url(#sw-gradient-3)" d="M0,147L34.3,187.8C68.6,229,137,310,206,334.8C274.3,359,343,327,411,285.8C480,245,549,196,617,147C685.7,98,754,49,823,49C891.4,49,960,98,1029,114.3C1097.1,131,1166,114,1234,138.8C1302.9,163,1371,229,1440,236.8C1508.6,245,1577,196,1646,212.3C1714.3,229,1783,310,1851,334.8C1920,359,1989,327,2057,334.8C2125.7,343,2194,392,2263,367.5C2331.4,343,2400,245,2469,187.8C2537.1,131,2606,114,2674,106.2C2742.9,98,2811,98,2880,98C2948.6,98,3017,98,3086,89.8C3154.3,82,3223,65,3291,57.2C3360,49,3429,49,3497,57.2C3565.7,65,3634,82,3703,147C3771.4,212,3840,327,3909,326.7C3977.1,327,4046,212,4114,147C4182.9,82,4251,65,4320,57.2C4388.6,49,4457,49,4526,57.2C4594.3,65,4663,82,4731,81.7C4800,82,4869,65,4903,57.2L4937.1,49L4937.1,490L4902.9,490C4868.6,490,4800,490,4731,490C4662.9,490,4594,490,4526,490C4457.1,490,4389,490,4320,490C4251.4,490,4183,490,4114,490C4045.7,490,3977,490,3909,490C3840,490,3771,490,3703,490C3634.3,490,3566,490,3497,490C3428.6,490,3360,490,3291,490C3222.9,490,3154,490,3086,490C3017.1,490,2949,490,2880,490C2811.4,490,2743,490,2674,490C2605.7,490,2537,490,2469,490C2400,490,2331,490,2263,490C2194.3,490,2126,490,2057,490C1988.6,490,1920,490,1851,490C1782.9,490,1714,490,1646,490C1577.1,490,1509,490,1440,490C1371.4,490,1303,490,1234,490C1165.7,490,1097,490,1029,490C960,490,891,490,823,490C754.3,490,686,490,617,490C548.6,490,480,490,411,490C342.9,490,274,490,206,490C137.1,490,69,490,34,490L0,490Z"></path></svg>