<svg id="visual" viewBox="0 0 960 540" width="960" height="540" xmlns="http://www.w3.org/2000/svg" xmlns:xlink="http://www.w3.org/1999/xlink" version="1.1"><path d="M0 60L87 136L175 125L262 82L349 77L436 93L524 98L611 50L698 136L785 87L873 50L960 125L960 0L873 0L785 0L698 0L611 0L524 0L436 0L349 0L262 0L175 0L87 0L0 0Z" fill="#00cc8e"></path><path d="M0 163L87 309L175 244L262 217L349 206L436 233L524 287L611 141L698 282L785 244L873 309L960 195L960 123L873 48L785 85L698 134L611 48L524 96L436 91L349 75L262 80L175 123L87 134L0 58Z" fill="#00b98a"></path><path d="M0 363L87 384L175 374L262 390L349 438L436 401L524 390L611 347L698 395L785 401L873 422L960 422L960 193L873 307L785 242L698 280L611 139L524 285L436 231L349 204L262 215L175 242L87 307L0 161Z" fill="#00a784"></path><path d="M0 433L87 449L175 428L262 460L349 487L436 444L524 471L611 438L698 482L785 492L873 476L960 487L960 420L873 420L785 399L698 393L611 345L524 388L436 399L349 436L262 388L175 372L87 382L0 361Z" fill="#00957c"></path><path d="M0 541L87 541L175 541L262 541L349 541L436 541L524 541L611 541L698 541L785 541L873 541L960 541L960 485L873 474L785 490L698 480L611 436L524 469L436 442L349 485L262 458L175 426L87 447L0 431Z" fill="#038373"></path></svg>