<svg id="visual" viewBox="0 0 900 600" width="900" height="600" xmlns="http://www.w3.org/2000/svg" xmlns:xlink="http://www.w3.org/1999/xlink" version="1.1"><path d="M0 139L13.7 138C27.3 137 54.7 135 82 134C109.3 133 136.7 133 163.8 122C191 111 218 89 245.2 93C272.3 97 299.7 127 327 128C354.3 129 381.7 101 409 89C436.3 77 463.7 81 491 78C518.3 75 545.7 65 573 61C600.3 57 627.7 59 654.8 63C682 67 709 73 736.2 88C763.3 103 790.7 127 818 128C845.3 129 872.7 107 886.3 96L900 85L900 0L886.3 0C872.7 0 845.3 0 818 0C790.7 0 763.3 0 736.2 0C709 0 682 0 654.8 0C627.7 0 600.3 0 573 0C545.7 0 518.3 0 491 0C463.7 0 436.3 0 409 0C381.7 0 354.3 0 327 0C299.7 0 272.3 0 245.2 0C218 0 191 0 163.8 0C136.7 0 109.3 0 82 0C54.7 0 27.3 0 13.7 0L0 0Z" fill="#436dbc"></path><path d="M0 175L13.7 176C27.3 177 54.7 179 82 185C109.3 191 136.7 201 163.8 198C191 195 218 179 245.2 176C272.3 173 299.7 183 327 174C354.3 165 381.7 137 409 131C436.3 125 463.7 141 491 149C518.3 157 545.7 157 573 152C600.3 147 627.7 137 654.8 133C682 129 709 131 736.2 146C763.3 161 790.7 189 818 189C845.3 189 872.7 161 886.3 147L900 133L900 83L886.3 94C872.7 105 845.3 127 818 126C790.7 125 763.3 101 736.2 86C709 71 682 65 654.8 61C627.7 57 600.3 55 573 59C545.7 63 518.3 73 491 76C463.7 79 436.3 75 409 87C381.7 99 354.3 127 327 126C299.7 125 272.3 95 245.2 91C218 87 191 109 163.8 120C136.7 131 109.3 131 82 132C54.7 133 27.3 135 13.7 136L0 137Z" fill="#2c5aad"></path><path d="M0 247L13.7 255C27.3 263 54.7 279 82 290C109.3 301 136.7 307 163.8 295C191 283 218 253 245.2 241C272.3 229 299.7 235 327 226C354.3 217 381.7 193 409 190C436.3 187 463.7 205 491 214C518.3 223 545.7 223 573 216C600.3 209 627.7 195 654.8 190C682 185 709 189 736.2 211C763.3 233 790.7 273 818 275C845.3 277 872.7 241 886.3 223L900 205L900 131L886.3 145C872.7 159 845.3 187 818 187C790.7 187 763.3 159 736.2 144C709 129 682 127 654.8 131C627.7 135 600.3 145 573 150C545.7 155 518.3 155 491 147C463.7 139 436.3 123 409 129C381.7 135 354.3 163 327 172C299.7 181 272.3 171 245.2 174C218 177 191 193 163.8 196C136.7 199 109.3 189 82 183C54.7 177 27.3 175 13.7 174L0 173Z" fill="#0d479d"></path><path d="M0 493L13.7 498C27.3 503 54.7 513 82 514C109.3 515 136.7 507 163.8 482C191 457 218 415 245.2 402C272.3 389 299.7 405 327 419C354.3 433 381.7 445 409 449C436.3 453 463.7 449 491 443C518.3 437 545.7 429 573 416C600.3 403 627.7 385 654.8 372C682 359 709 351 736.2 366C763.3 381 790.7 419 818 442C845.3 465 872.7 473 886.3 477L900 481L900 203L886.3 221C872.7 239 845.3 275 818 273C790.7 271 763.3 231 736.2 209C709 187 682 183 654.8 188C627.7 193 600.3 207 573 214C545.7 221 518.3 221 491 212C463.7 203 436.3 185 409 188C381.7 191 354.3 215 327 224C299.7 233 272.3 227 245.2 239C218 251 191 281 163.8 293C136.7 305 109.3 299 82 288C54.7 277 27.3 261 13.7 253L0 245Z" fill="#033f88"></path><path d="M0 601L13.7 601C27.3 601 54.7 601 82 601C109.3 601 136.7 601 163.8 601C191 601 218 601 245.2 601C272.3 601 299.7 601 327 601C354.3 601 381.7 601 409 601C436.3 601 463.7 601 491 601C518.3 601 545.7 601 573 601C600.3 601 627.7 601 654.8 601C682 601 709 601 736.2 601C763.3 601 790.7 601 818 601C845.3 601 872.7 601 886.3 601L900 601L900 479L886.3 475C872.7 471 845.3 463 818 440C790.7 417 763.3 379 736.2 364C709 349 682 357 654.8 370C627.7 383 600.3 401 573 414C545.7 427 518.3 435 491 441C463.7 447 436.3 451 409 447C381.7 443 354.3 431 327 417C299.7 403 272.3 387 245.2 400C218 413 191 455 163.8 480C136.7 505 109.3 513 82 512C54.7 511 27.3 501 13.7 496L0 491Z" fill="#003674"></path></svg>