<svg id="wave" fill-opacity="0.3" style="transform:rotate(180deg); transition: 0.3s" viewBox="0 0 1440 490" version="1.1" xmlns="http://www.w3.org/2000/svg"><defs><linearGradient id="sw-gradient-0" x1="0" x2="0" y1="1" y2="0"><stop stop-color="rgba(243, 106, 62, 1)" offset="0%"></stop><stop stop-color="rgba(255, 179, 11, 1)" offset="100%"></stop></linearGradient></defs><path style="transform:translate(0, 0px); opacity:1" fill="url(#sw-gradient-0)" d="M0,294L80,245C160,196,320,98,480,98C640,98,800,196,960,196C1120,196,1280,98,1440,57.2C1600,16,1760,33,1920,81.7C2080,131,2240,212,2400,228.7C2560,245,2720,196,2880,171.5C3040,147,3200,147,3360,163.3C3520,180,3680,212,3840,228.7C4000,245,4160,245,4320,269.5C4480,294,4640,343,4800,343C4960,343,5120,294,5280,245C5440,196,5600,147,5760,147C5920,147,6080,196,6240,179.7C6400,163,6560,82,6720,114.3C6880,147,7040,294,7200,359.3C7360,425,7520,408,7680,343C7840,278,8000,163,8160,155.2C8320,147,8480,245,8640,236.8C8800,229,8960,114,9120,81.7C9280,49,9440,98,9600,171.5C9760,245,9920,343,10080,318.5C10240,294,10400,147,10560,73.5C10720,0,10880,0,11040,8.2C11200,16,11360,33,11440,40.8L11520,49L11520,490L11440,490C11360,490,11200,490,11040,490C10880,490,10720,490,10560,490C10400,490,10240,490,10080,490C9920,490,9760,490,9600,490C9440,490,9280,490,9120,490C8960,490,8800,490,8640,490C8480,490,8320,490,8160,490C8000,490,7840,490,7680,490C7520,490,7360,490,7200,490C7040,490,6880,490,6720,490C6560,490,6400,490,6240,490C6080,490,5920,490,5760,490C5600,490,5440,490,5280,490C5120,490,4960,490,4800,490C4640,490,4480,490,4320,490C4160,490,4000,490,3840,490C3680,490,3520,490,3360,490C3200,490,3040,490,2880,490C2720,490,2560,490,2400,490C2240,490,2080,490,1920,490C1760,490,1600,490,1440,490C1280,490,1120,490,960,490C800,490,640,490,480,490C320,490,160,490,80,490L0,490Z"></path><defs><linearGradient id="sw-gradient-1" x1="0" x2="0" y1="1" y2="0"><stop stop-color="rgba(243, 106, 62, 1)" offset="0%"></stop><stop stop-color="rgba(255, 179, 11, 1)" offset="100%"></stop></linearGradient></defs><path style="transform:translate(0, 50px); opacity:0.9" fill="url(#sw-gradient-1)" d="M0,392L80,392C160,392,320,392,480,400.2C640,408,800,425,960,375.7C1120,327,1280,212,1440,163.3C1600,114,1760,131,1920,155.2C2080,180,2240,212,2400,187.8C2560,163,2720,82,2880,49C3040,16,3200,33,3360,81.7C3520,131,3680,212,3840,277.7C4000,343,4160,392,4320,383.8C4480,376,4640,310,4800,269.5C4960,229,5120,212,5280,204.2C5440,196,5600,196,5760,163.3C5920,131,6080,65,6240,106.2C6400,147,6560,294,6720,294C6880,294,7040,147,7200,73.5C7360,0,7520,0,7680,16.3C7840,33,8000,65,8160,138.8C8320,212,8480,327,8640,318.5C8800,310,8960,180,9120,138.8C9280,98,9440,147,9600,196C9760,245,9920,294,10080,318.5C10240,343,10400,343,10560,326.7C10720,310,10880,278,11040,277.7C11200,278,11360,310,11440,326.7L11520,343L11520,490L11440,490C11360,490,11200,490,11040,490C10880,490,10720,490,10560,490C10400,490,10240,490,10080,490C9920,490,9760,490,9600,490C9440,490,9280,490,9120,490C8960,490,8800,490,8640,490C8480,490,8320,490,8160,490C8000,490,7840,490,7680,490C7520,490,7360,490,7200,490C7040,490,6880,490,6720,490C6560,490,6400,490,6240,490C6080,490,5920,490,5760,490C5600,490,5440,490,5280,490C5120,490,4960,490,4800,490C4640,490,4480,490,4320,490C4160,490,4000,490,3840,490C3680,490,3520,490,3360,490C3200,490,3040,490,2880,490C2720,490,2560,490,2400,490C2240,490,2080,490,1920,490C1760,490,1600,490,1440,490C1280,490,1120,490,960,490C800,490,640,490,480,490C320,490,160,490,80,490L0,490Z"></path><defs><linearGradient id="sw-gradient-2" x1="0" x2="0" y1="1" y2="0"><stop stop-color="rgba(243, 106, 62, 1)" offset="0%"></stop><stop stop-color="rgba(255, 179, 11, 1)" offset="100%"></stop></linearGradient></defs><path style="transform:translate(0, 100px); opacity:0.8" fill="url(#sw-gradient-2)" d="M0,98L80,138.8C160,180,320,261,480,294C640,327,800,310,960,294C1120,278,1280,261,1440,236.8C1600,212,1760,180,1920,171.5C2080,163,2240,180,2400,155.2C2560,131,2720,65,2880,40.8C3040,16,3200,33,3360,89.8C3520,147,3680,245,3840,310.3C4000,376,4160,408,4320,400.2C4480,392,4640,343,4800,334.8C4960,327,5120,359,5280,383.8C5440,408,5600,425,5760,375.7C5920,327,6080,212,6240,155.2C6400,98,6560,98,6720,106.2C6880,114,7040,131,7200,171.5C7360,212,7520,278,7680,261.3C7840,245,8000,147,8160,138.8C8320,131,8480,212,8640,236.8C8800,261,8960,229,9120,228.7C9280,229,9440,261,9600,302.2C9760,343,9920,392,10080,416.5C10240,441,10400,441,10560,416.5C10720,392,10880,343,11040,318.5C11200,294,11360,294,11440,294L11520,294L11520,490L11440,490C11360,490,11200,490,11040,490C10880,490,10720,490,10560,490C10400,490,10240,490,10080,490C9920,490,9760,490,9600,490C9440,490,9280,490,9120,490C8960,490,8800,490,8640,490C8480,490,8320,490,8160,490C8000,490,7840,490,7680,490C7520,490,7360,490,7200,490C7040,490,6880,490,6720,490C6560,490,6400,490,6240,490C6080,490,5920,490,5760,490C5600,490,5440,490,5280,490C5120,490,4960,490,4800,490C4640,490,4480,490,4320,490C4160,490,4000,490,3840,490C3680,490,3520,490,3360,490C3200,490,3040,490,2880,490C2720,490,2560,490,2400,490C2240,490,2080,490,1920,490C1760,490,1600,490,1440,490C1280,490,1120,490,960,490C800,490,640,490,480,490C320,490,160,490,80,490L0,490Z"></path><defs><linearGradient id="sw-gradient-3" x1="0" x2="0" y1="1" y2="0"><stop stop-color="rgba(243, 106, 62, 1)" offset="0%"></stop><stop stop-color="rgba(255, 179, 11, 1)" offset="100%"></stop></linearGradient></defs><path style="transform:translate(0, 150px); opacity:0.7" fill="url(#sw-gradient-3)" d="M0,441L80,400.2C160,359,320,278,480,220.5C640,163,800,131,960,130.7C1120,131,1280,163,1440,179.7C1600,196,1760,196,1920,220.5C2080,245,2240,294,2400,294C2560,294,2720,245,2880,253.2C3040,261,3200,327,3360,351.2C3520,376,3680,359,3840,334.8C4000,310,4160,278,4320,294C4480,310,4640,376,4800,351.2C4960,327,5120,212,5280,212.3C5440,212,5600,327,5760,343C5920,359,6080,278,6240,220.5C6400,163,6560,131,6720,98C6880,65,7040,33,7200,49C7360,65,7520,131,7680,171.5C7840,212,8000,229,8160,228.7C8320,229,8480,212,8640,212.3C8800,212,8960,229,9120,245C9280,261,9440,278,9600,236.8C9760,196,9920,98,10080,73.5C10240,49,10400,98,10560,171.5C10720,245,10880,343,11040,359.3C11200,376,11360,310,11440,277.7L11520,245L11520,490L11440,490C11360,490,11200,490,11040,490C10880,490,10720,490,10560,490C10400,490,10240,490,10080,490C9920,490,9760,490,9600,490C9440,490,9280,490,9120,490C8960,490,8800,490,8640,490C8480,490,8320,490,8160,490C8000,490,7840,490,7680,490C7520,490,7360,490,7200,490C7040,490,6880,490,6720,490C6560,490,6400,490,6240,490C6080,490,5920,490,5760,490C5600,490,5440,490,5280,490C5120,490,4960,490,4800,490C4640,490,4480,490,4320,490C4160,490,4000,490,3840,490C3680,490,3520,490,3360,490C3200,490,3040,490,2880,490C2720,490,2560,490,2400,490C2240,490,2080,490,1920,490C1760,490,1600,490,1440,490C1280,490,1120,490,960,490C800,490,640,490,480,490C320,490,160,490,80,490L0,490Z"></path></svg>